#!OML:ASF F:\VICON\USERDATA\INSTALL\rory3\rory3.ASF
:FULLY-SPECIFIED
:DEGREES
36
root 0.42120590469951613 18.367968270544665 4.076318675133043 5.144211815835826 -4.809430387739328 2.2914558914860392
lfemur 3.2453381790733005 -2.701125246009358 -28.072319071071213
ltibia 43.5700580625424
lfoot 7.766014875422311 -14.33597550013444
ltoes -4.641628653874181
rfemur -37.332011515025144 2.697784193743401 24.28113604197919
rtibia 46.578841072903444
rfoot -5.992102727335915 -2.426466302611465
rtoes -5.31992961020232
lowerback 13.284354328338528 -1.6800134173256944 -1.8162533590413497
upperback -1.473301204723235 -2.5214007121452013 1.6000314658082573
thorax -8.90181925737695 -0.8321054580202424 2.6596320306505503
lowerneck -19.949962617712746 -3.7005786270971166 -2.1524634912446547
upperneck 16.705479430009127 -5.089625116079146 2.9806708625226936
head 8.481184131506632 -2.361816568535406 0.70743041006862
lclavicle -1.9521729781547094e-15 1.1013548979508217e-15
lhumerus -39.68237157125646 -13.280806104580368 97.06334593812434
lradius 118.11564898304205
lwrist 46.50965089301463
lhand -16.961805806059306 4.609412529486161
lfingers 7.125020000000001
lthumb 8.814821049101875 33.86861567683809
rclavicle -1.952176533154804e-15 1.1013521049474093e-15
rhumerus -56.98750799625258 8.362177665247403 -99.03357686598588
rradius 111.98465297544732
rwrist -16.45363649804922
rhand -24.380607932407745 -91.43203500249584
rfingers 7.125020000000001
rthumb 0.5559133182779947 17.577621354975005
37
root 0.42814295691589926 18.262559395925823 4.884212380890879 4.491766507360436 -5.52192052033649 1.644549674107051
lfemur 3.169112500557528 -1.60191520166795 -26.638720036518055
ltibia 51.03642569692308
lfoot 7.277541097641674 -14.013087884981346
ltoes 0.6209793071498826
rfemur -35.88531884884655 2.8530220148341425 24.90727291210997
rtibia 42.7567568272014
rfoot -6.3991920108545255 -3.2015562872559697
rtoes -5.4037031984343225
lowerback 13.743999185254118 -1.4613198455824092 -1.6322255386017983
upperback -1.0509100578038748 -2.1783021495482933 1.5150547221844928
thorax -8.897775492505374 -0.7429356800828059 2.405712478283997
lowerneck -20.04499820544022 -3.694766621137449 -2.1685500931219988
upperneck 16.482441201576872 -5.0159218191251576 2.954183191007027
head 8.507051143134653 -2.309638302543923 0.7116662599576965
lclavicle -1.952172978155529e-15 1.1013548979501778e-15
lhumerus -40.35321446063055 -13.548677816212741 97.38222689999513
lradius 117.46872826801862
lwrist 46.44998248858377
lhand -17.014720335602735 4.778311709894693
lfingers 7.125020000000001
lthumb 8.837801677591333 34.19489919577508
rclavicle -1.9521765331406197e-15 1.1013521049585533e-15
rhumerus -56.57059030713489 7.961891326100404 -98.81880163820752
rradius 112.42879567392615
rwrist -16.950629376189344
rhand -24.28608630274769 -95.56869065780198
rfingers 7.125020000000001
rthumb 0.6324168500777617 15.68708122958147
38
root 0.4262429984025535 18.085941465605952 4.645614362830932 3.613129191285538 -6.6733721241136115 0.9511425432065241
lfemur 0.313213173308327 -0.7899032484350128 -26.03573907055661
ltibia 58.69550023335675
lfoot 6.877185071971138 -14.26675028122722
ltoes 1.8917590716385195
rfemur -34.172426770989176 3.083356802676836 25.913514193245682
rtibia 39.87437151867461
rfoot -6.015206402841036 -4.628685597865444
rtoes -6.381615144483522
lowerback 14.382133246177181 -1.1675245656096787 -1.3103468291226177
upperback -0.7367582401149537 -1.7950237061615526 1.449397260918732
thorax -8.841021791748954 -0.5408565277333905 2.362892106740004
lowerneck -20.17243792181692 -3.6111288727658444 -2.1320336174704275
upperneck 16.24639889391746 -4.933506878973901 2.9651146588886594
head 8.49428670865049 -2.2920063467906706 0.6907971018286949
lclavicle -1.9521729781562875e-15 1.1013548979495816e-15
lhumerus -40.917242233281485 -13.370147254346193 97.57481541605588
lradius 116.50071799296582
lwrist 46.007478038956165
lhand -17.042303292920028 4.933393897472393
lfingers 7.125020000000001
lthumb 8.835630844388994 34.37452616282609
rclavicle -1.9521765331037148e-15 1.1013521049875479e-15
rhumerus -55.98191376122022 7.688670135034992 -98.74533144698616
rradius 112.99455265789622
rwrist -17.459705468777145
rhand -24.115406770747168 -95.07470034676939
rfingers 7.125020000000001
rthumb 0.5480154659585896 13.938774347066214
39
root 0.42763134455520735 17.90416557970173 5.710560659370083 2.857049202837988 -7.544409247515447 0.2538597314558029
lfemur -0.9869124821077371 0.4340186939579506 -24.48012672169245
ltibia 65.91363868500302
lfoot 5.193790017492938 -14.759185719636864
ltoes 1.3287619567141178
rfemur -32.860862034274746 3.4428172300910473 27.162726937092234
rtibia 38.07733802767778
rfoot -5.204113384362323 -5.720253270166101
rtoes -5.783850995237862
lowerback 14.996869819001843 -0.8765649197123899 -1.0004071769195475
upperback -0.39806463121757674 -1.2916478941981933 1.4537756973121208
thorax -8.962761900525692 -0.42302970171540477 2.065180089627444
lowerneck -20.246350482622653 -3.5751265086762167 -2.126639970275486
upperneck 15.93507829241128 -4.914680404647954 2.9246123813600127
head 8.448704459496518 -2.2872498555467633 0.6677911238856254
lclavicle -1.952172978152355e-15 1.1013548979526714e-15
lhumerus -41.95779286812598 -12.997161906270769 97.64629818388381
lradius 115.06763252352903
lwrist 45.8257636164867
lhand -17.127155593799394 5.01502808467776
lfingers 7.125020000000001
lthumb 8.770729564149523 34.569700229600265
rclavicle -1.9521765330797204e-15 1.101352105006399e-15
rhumerus -55.237106101349966 7.698393171778222 -98.85504059979006
rradius 113.51150870676301
rwrist -17.719471541342962
rhand -24.081851655084755 -95.65402929804085
rfingers 7.125020000000001
rthumb 1.1617601176617864 13.665188039795323
